<svg version="1.1" id="Layer_1" xmlns="http://www.w3.org/2000/svg" xmlns:xlink="http://www.w3.org/1999/xlink" x="0px" y="0px"
	 viewBox="0 0 489.6 495.59" style="enable-background:new 0 0 489.6 495.59;" xml:space="preserve">
<style type="text/css">
	.st0{fill:#C1C8D1;}
	.st1{fill:#0F0F2E;}
	.st2{fill:#2D2E6A;}
	.st3{fill:#AC876C;}
	.st4{fill:#976947;}
	.st5{fill:#A1CDFB;}
	.st6{fill:#616469;}
	.st7{fill:#313235;}
	.st8{fill:none;stroke:#E1E2E6;stroke-miterlimit:10;}
	.st9{fill:#D5DAE2;}
</style>
<path class="st0" d="M434.32,90.44h31.59v390.32h-31.59V90.44z M23.69,90.44h31.59v390.32H23.69V90.44z"/>
<g>
	<path class="st1" d="M465.91,47.38C465.91,21.23,444.68,0,418.53,0H71.07C44.92,0,23.69,21.23,23.69,47.38H465.91z"/>
	<rect x="7.9" y="47.38" class="st2" width="473.81" height="47.38"/>
</g>
<g>
	<path class="st3" d="M310.98,435.28h29.41v55.31h-29.41V435.28z M149.21,435.28h29.41v55.31h-29.41V435.28z"/>
	<rect x="134.51" y="413.16" class="st4" width="220.59" height="22.12"/>
</g>
<rect y="479.79" class="st5" width="489.6" height="15.79"/>
<rect x="28.24" y="314.99" class="st6" width="16.91" height="164.81"/>
<rect x="28.27" y="447.05" transform="matrix(6.123234e-17 -1 1 6.123234e-17 -434.664 508.0656)" class="st6" width="16.86" height="48.64"/>
<g>
	<path class="st7" d="M66.12,314.99H7.29c-4.08,0-7.39-3.31-7.39-7.39v-88.9c0-4.08,3.31-7.39,7.39-7.39h58.83
		c4.08,0,7.39,3.31,7.39,7.39v88.9C73.51,311.68,70.2,314.99,66.12,314.99z"/>
	<path class="st8" d="M62.66,310.79H10.74c-4.4,0-7.97-3.57-7.97-7.97v-80.1c0-4.4,3.57-7.97,7.97-7.97h51.91
		c4.4,0,7.97,3.57,7.97,7.97v80.1C70.63,307.22,67.06,310.79,62.66,310.79z"/>
</g>
<g>
	<g>
		<path class="st9" d="M24.98,247.32c0,0.64-0.15,1.26-0.44,1.87c-0.29,0.61-0.7,1.14-1.22,1.59h0.03c0.68,0.42,1.17,0.94,1.48,1.55
			c0.3,0.61,0.46,1.25,0.46,1.9v1.24c0,0.82-0.14,1.56-0.41,2.22c-0.28,0.65-0.66,1.21-1.16,1.66c-0.5,0.45-1.09,0.79-1.77,1.03
			c-0.68,0.23-1.44,0.35-2.26,0.35H8.99v-19.86h10.38c0.83,0,1.59,0.12,2.28,0.35c0.69,0.23,1.28,0.56,1.78,0.99
			c0.5,0.43,0.88,0.94,1.15,1.54c0.27,0.6,0.4,1.26,0.4,1.97V247.32z M13.05,249.12h5.58c0.31,0,0.61-0.06,0.88-0.18
			c0.28-0.12,0.52-0.27,0.73-0.47c0.21-0.19,0.38-0.42,0.5-0.69c0.12-0.26,0.18-0.54,0.18-0.84v-0.3c0-0.3-0.06-0.57-0.18-0.83
			c-0.12-0.26-0.29-0.49-0.5-0.69c-0.21-0.2-0.46-0.36-0.73-0.48c-0.28-0.12-0.57-0.17-0.88-0.17h-5.58V249.12z M21.22,254.65
			c0-0.3-0.06-0.58-0.18-0.84c-0.12-0.26-0.29-0.49-0.5-0.69c-0.21-0.19-0.46-0.35-0.75-0.47c-0.29-0.12-0.58-0.18-0.9-0.18h-5.85
			v4.57h5.85c0.31,0,0.61-0.06,0.9-0.17c0.29-0.12,0.53-0.27,0.75-0.47c0.21-0.19,0.38-0.42,0.5-0.69c0.12-0.26,0.18-0.55,0.18-0.86
			V254.65z"/>
		<path class="st9" d="M43.98,254.95c0,0.79-0.18,1.54-0.52,2.24c-0.35,0.7-0.83,1.31-1.45,1.83c-0.62,0.52-1.34,0.93-2.17,1.24
			c-0.83,0.3-1.71,0.46-2.65,0.46h-2.68c-0.94,0-1.82-0.15-2.65-0.46c-0.83-0.3-1.56-0.72-2.18-1.24c-0.63-0.52-1.12-1.13-1.48-1.83
			s-0.54-1.45-0.54-2.24v-14.1h4.25v13.89c0,0.34,0.07,0.67,0.22,0.97c0.15,0.3,0.35,0.57,0.62,0.81c0.27,0.23,0.58,0.42,0.92,0.55
			c0.35,0.13,0.73,0.2,1.13,0.2h2.04c0.4,0,0.78-0.07,1.13-0.2c0.35-0.13,0.65-0.31,0.91-0.55c0.26-0.23,0.46-0.5,0.62-0.81
			c0.16-0.3,0.23-0.63,0.23-0.97v-13.89h4.22V254.95z"/>
		<path class="st9" d="M57.59,248.39c0.98,0,1.88,0.16,2.72,0.47c0.84,0.31,1.56,0.75,2.17,1.31c0.61,0.56,1.08,1.23,1.42,2
			c0.34,0.77,0.51,1.61,0.51,2.51c0,0.86-0.16,1.65-0.47,2.39c-0.31,0.74-0.76,1.38-1.33,1.91c-0.57,0.54-1.25,0.96-2.04,1.27
			c-0.79,0.31-1.67,0.47-2.62,0.47H47.24v-3.69h9.47c0.46,0,0.9-0.05,1.33-0.14c0.42-0.09,0.79-0.24,1.09-0.43
			c0.3-0.19,0.55-0.44,0.73-0.74c0.18-0.3,0.28-0.65,0.28-1.05c0-0.76-0.29-1.35-0.88-1.77c-0.59-0.42-1.33-0.63-2.21-0.63h-2.79
			c-1.18,0-2.25-0.11-3.2-0.33c-0.96-0.22-1.77-0.56-2.44-1.03c-0.67-0.47-1.19-1.07-1.56-1.81c-0.37-0.74-0.55-1.62-0.55-2.65
			c0-0.73,0.15-1.44,0.44-2.11c0.29-0.68,0.71-1.27,1.24-1.79c0.53-0.51,1.18-0.93,1.93-1.24c0.75-0.31,1.59-0.47,2.51-0.47h9.72
			v3.87h-7.93c-0.44,0-0.86,0.02-1.26,0.07c-0.4,0.05-0.74,0.14-1.04,0.27c-0.29,0.13-0.52,0.32-0.69,0.57
			c-0.17,0.25-0.25,0.58-0.25,1c0,0.5,0.19,0.91,0.58,1.25c0.39,0.33,0.92,0.5,1.6,0.5H57.59z"/>
	</g>
	<g>
		<path class="st9" d="M17.36,274.86c0.74,0,1.42,0.13,2.05,0.4c0.63,0.27,1.18,0.64,1.63,1.12c0.46,0.48,0.82,1.05,1.07,1.71
			c0.26,0.66,0.39,1.38,0.39,2.15c0,0.73-0.12,1.42-0.35,2.05c-0.24,0.63-0.57,1.18-1,1.64c-0.43,0.46-0.94,0.82-1.54,1.09
			c-0.6,0.27-1.26,0.4-1.98,0.4H9.55v-3.17h7.14c0.35,0,0.68-0.04,1-0.12c0.32-0.08,0.59-0.2,0.82-0.37
			c0.23-0.17,0.41-0.38,0.55-0.63c0.14-0.25,0.21-0.55,0.21-0.9c0-0.65-0.22-1.16-0.67-1.52c-0.44-0.36-1-0.54-1.67-0.54h-2.1
			c-0.89,0-1.69-0.09-2.42-0.28c-0.72-0.19-1.34-0.48-1.84-0.88c-0.51-0.4-0.9-0.92-1.18-1.55c-0.28-0.63-0.42-1.39-0.42-2.27
			c0-0.63,0.11-1.23,0.33-1.81c0.22-0.58,0.53-1.09,0.94-1.53c0.4-0.44,0.89-0.79,1.46-1.06c0.57-0.27,1.2-0.4,1.9-0.4h7.33v3.33
			h-5.98c-0.33,0-0.65,0.02-0.95,0.06c-0.3,0.04-0.56,0.12-0.78,0.23c-0.22,0.11-0.4,0.28-0.52,0.49c-0.12,0.21-0.19,0.5-0.19,0.86
			c0,0.43,0.15,0.79,0.44,1.07c0.29,0.29,0.69,0.43,1.21,0.43H17.36z"/>
		<path class="st9" d="M28.34,271.53H23.8v-3.15h12.29v3.15H31.5v13.91h-3.17V271.53z"/>
		<path class="st9" d="M44.77,268.39c0.71,0,1.37,0.13,2,0.39c0.62,0.26,1.17,0.61,1.63,1.06c0.46,0.45,0.83,0.98,1.1,1.58
			c0.27,0.61,0.41,1.25,0.41,1.93v7.13c0,0.68-0.14,1.32-0.41,1.92s-0.64,1.13-1.1,1.57c-0.47,0.45-1.01,0.8-1.63,1.06
			c-0.62,0.26-1.29,0.39-2,0.39h-2.02c-0.71,0-1.37-0.13-2-0.39c-0.62-0.26-1.17-0.61-1.63-1.06c-0.47-0.45-0.83-0.97-1.1-1.57
			s-0.41-1.24-0.41-1.92v-7.13c0-0.68,0.14-1.33,0.41-1.93c0.27-0.61,0.64-1.14,1.1-1.58c0.46-0.45,1.01-0.8,1.63-1.06
			c0.62-0.26,1.29-0.39,2-0.39H44.77z M46.73,273.52c0-0.6-0.18-1.11-0.53-1.53c-0.35-0.42-0.84-0.63-1.45-0.63h-1.98
			c-0.61,0-1.09,0.21-1.45,0.63c-0.35,0.42-0.53,0.93-0.53,1.53v6.79c0,0.6,0.18,1.11,0.53,1.53c0.35,0.42,0.84,0.63,1.45,0.63h1.98
			c0.61,0,1.09-0.21,1.45-0.63c0.35-0.42,0.53-0.93,0.53-1.53V273.52z"/>
		<path class="st9" d="M59.6,268.39c0.67,0,1.29,0.12,1.88,0.36c0.59,0.24,1.1,0.57,1.53,0.99c0.43,0.42,0.77,0.91,1.02,1.47
			c0.25,0.56,0.38,1.16,0.38,1.8v0.74c0,0.64-0.13,1.24-0.38,1.8c-0.25,0.56-0.59,1.05-1.02,1.47c-0.43,0.42-0.94,0.75-1.53,0.99
			c-0.59,0.24-1.22,0.36-1.88,0.36h-4.48v7.05H52v-17.06H59.6z M55.12,271.37v4.03h3.96c0.75,0,1.29-0.18,1.63-0.53
			c0.34-0.35,0.51-0.84,0.51-1.47c0-0.6-0.17-1.09-0.52-1.46c-0.35-0.37-0.89-0.56-1.62-0.56H55.12z"/>
	</g>
</g>
</svg>
