<svg id="Layer_1" data-name="Layer 1" xmlns="http://www.w3.org/2000/svg" viewBox="0 0 297.82 352.37"><defs><style>.cls-1{fill:#d8d8d8;}.cls-2{fill:#071749;}.cls-3{fill:#c6c6c6;}.cls-4{fill:#fff;}.cls-5{fill:#f29f18;}.cls-6{fill:#f4bc62;}.cls-7{fill:#734b0b;}.cls-8{fill:#595959;}.cls-9{fill:#f7f5f6;}.cls-10{fill:#3f3f3f;}.cls-11{fill:#999;}.cls-12{fill:#2b2b2b;}.cls-13{fill:#3a3a3a;}.cls-14{fill:#050505;}</style></defs><path class="cls-1" d="M39.6,224.83H258.22a39.6,39.6,0,0,1,39.6,39.6v87.93a0,0,0,0,1,0,0H0a0,0,0,0,1,0,0V264.44A39.6,39.6,0,0,1,39.6,224.83Z"/><path class="cls-2" d="M261.28,354.05V226.3a197.28,197.28,0,0,0-224.74,0V354.05Z" transform="translate(0 -1.68)"/><rect class="cls-3" x="146.43" y="219.07" width="7.5" height="96.75"/><path class="cls-4" d="M204.78,197.7l-38.47,38.4-16.13-16.2,21.38-21.37v-7.65A182.83,182.83,0,0,1,204.78,197.7Zm-54.67,22.2-16.36,16.35L95.36,197.78a179.58,179.58,0,0,1,33.45-6.9v7.65Z" transform="translate(0 -1.68)"/><path class="cls-5" d="M98.66,114.33H80.28a18.38,18.38,0,0,1,0-36.75H98.66Zm103,0H220a18.38,18.38,0,1,0,0-36.75H201.63ZM150.11,220.9l-21.38-21.37V169.68h42.68v29.85Z" transform="translate(0 -1.68)"/><path class="cls-6" d="M150.18,177.11a60.31,60.31,0,0,1-60.3-60.31V74.88a60.3,60.3,0,1,1,120.6,0V116.8A60.31,60.31,0,0,1,150.18,177.11Z" transform="translate(0 -1.68)"/><path class="cls-5" d="M150,14.5h.08a61.06,61.06,0,0,0-9.15.75,60.45,60.45,0,0,1,51.22,59.63V116.8A60.39,60.39,0,0,1,141,176.5a61.8,61.8,0,0,0,9.14.75H150a60.29,60.29,0,0,0,60.14-60.45V74.88A60.24,60.24,0,0,0,150,14.5Z" transform="translate(0 -1.68)"/><path class="cls-7" d="M76.61,92.28H84v7.35H76.61Zm139.8,0h7.35v7.35h-7.35Z" transform="translate(0 -1.68)"/><path class="cls-8" d="M161.43,99.25h7.5V113.5h-7.5Zm3.75-15h18.75v7.5H165.18Zm-33.75,15h7.5V113.5h-7.5Zm-15-15h18.75v7.5H116.43Z" transform="translate(0 -1.68)"/><path class="cls-9" d="M224.28,78l-22.57,30.82-20.25,27.68-5.93-4.35L201.71,96.4l13.8-18.9h4.57A19.47,19.47,0,0,1,224.28,78Zm-99.37,54.15L119,136.53,98.73,108.86,76.16,78a19.47,19.47,0,0,1,4.2-.52h4.57l13.8,18.9Z" transform="translate(0 -1.68)"/><path class="cls-9" d="M90.7,127a60.3,60.3,0,0,0,119,0Z" transform="translate(0 -1.68)"/><path class="cls-10" d="M197,33.11v30.6a13.89,13.89,0,0,0,13.88,13.87h9.3V56.28A23.25,23.25,0,0,0,197,33.1Z" transform="translate(0 -1.68)"/><path class="cls-11" d="M103.53,10.53h15.9V54A23.54,23.54,0,0,1,95.88,77.58H80V34.08A23.55,23.55,0,0,1,103.53,10.53Z" transform="translate(0 -1.68)"/><path class="cls-8" d="M119.43,10.53V54.48a23.11,23.11,0,0,1-23.1,23.1V33.63A23.11,23.11,0,0,1,119.43,10.53Z" transform="translate(0 -1.68)"/><path class="cls-10" d="M181.16,1.68h-52.5a9.22,9.22,0,0,0-9.23,9.23v35.7a17.92,17.92,0,0,0,17.93,17.92H220v-24A38.76,38.76,0,0,0,181.15,1.68Z" transform="translate(0 -1.68)"/><path class="cls-8" d="M158.06,1.68H128.73a9.22,9.22,0,0,0-9.23,9.23v35.7a17.93,17.93,0,0,0,17.93,17.92h42.3A17.26,17.26,0,0,0,197,47.28V40.53A38.92,38.92,0,0,0,158.06,1.68Z" transform="translate(0 -1.68)"/><path class="cls-3" d="M150.18,126.7l4,4a3.31,3.31,0,0,1,0,4.65l-2.85,2.85a3.46,3.46,0,0,1-2.33,1h-19.8a3.33,3.33,0,0,0-3.3,3.3v.75a3.33,3.33,0,0,0,3.3,3.3h41.93a3.3,3.3,0,0,1,0,6.6h-42a3.33,3.33,0,0,0-3.3,3.3v.75a3.33,3.33,0,0,0,3.3,3.3h27a3.3,3.3,0,0,1,2.32,1l.3.3a3.31,3.31,0,0,1,0,4.65l-7.57,7.86a3.32,3.32,0,0,0-1,2.33v.52a60.32,60.32,0,0,0,59.48-50.4Z" transform="translate(0 -1.68)"/><path class="cls-12" d="M177.4,345.48l52.5-30.9L215,289.23l-52.42,30.9h0a26.76,26.76,0,0,0-12.44-3,27.66,27.66,0,0,0-12.38,2.92L85.38,289.23,70.45,314.58l52.28,30.83a27,27,0,0,0,1.7,8.64H175.7A27,27,0,0,0,177.4,345.48Z" transform="translate(0 -1.68)"/><path class="cls-13" d="M76.83,344.43a73.5,73.5,0,1,1,147,0,74.49,74.49,0,0,1-.63,9.62h19.58l1.38-.77a86.25,86.25,0,0,0,.45-8.85c-.3-51.9-42.52-94.13-94.43-94.13h0a94.23,94.23,0,0,0-94.12,94.13,86.26,86.26,0,0,0,.44,8.85l1.39.77H77.46A74.49,74.49,0,0,1,76.83,344.43Z" transform="translate(0 -1.68)"/><rect class="cls-14" x="159.6" y="318.35" width="75.3" height="14.7" transform="translate(-136.44 140.62) rotate(-30.01)"/><path class="cls-14" d="M177.56,344.5a27.38,27.38,0,1,0-53,9.55h51.32A27.28,27.28,0,0,0,177.56,344.5Z" transform="translate(0 -1.68)"/><path class="cls-12" d="M244,353.36a86.59,86.59,0,0,0,.45-8.86,94.68,94.68,0,0,0-55.58-85.87h0a136.88,136.88,0,0,1-3.07,21.6,73.51,73.51,0,0,1,37.87,64.27,75.21,75.21,0,0,1-.62,9.55h19.7C243.17,353.81,243.6,353.59,244,353.36Z" transform="translate(0 -1.68)"/></svg>