<svg xmlns="http://www.w3.org/2000/svg" viewBox="0 0 78.51 259.95"><defs><style>.cls-1,.cls-2{fill:none;stroke:#000;stroke-width:5px;}.cls-1{stroke-linecap:round;stroke-linejoin:round;}.cls-2{stroke-miterlimit:10;}</style></defs><g id="Layer_2" data-name="Layer 2"><path class="cls-1" d="M14.83,262.1c4.63-8.71,14.54-14.73,26-14.73,11.64,0,21.67,6.2,26.22,15.14" transform="translate(-1.58 -5.06)"/><line class="cls-2" x1="33.61" y1="242.31" x2="33.61" y2="76.01"/><line class="cls-2" x1="44.9" y1="76.01" x2="44.9" y2="242.31"/><circle class="cls-2" cx="39.26" cy="39.26" r="36.76"/><path d="M22.69,44.83H16.14c-.75,0-1.12-.25-1.12-.77a.77.77,0,0,1,.29-.66c.29-.13.52-.23.69-.32a.64.64,0,0,0,.35-.36,2.74,2.74,0,0,0,.08-.78V29a2.68,2.68,0,0,0-.07-.8.75.75,0,0,0-.4-.35,6.31,6.31,0,0,1-.63-.34.69.69,0,0,1-.31-.64c0-.51.37-.77,1.12-.77h6.55Zm9.1-5A4.29,4.29,0,0,1,30,43.62a10,10,0,0,1-5.53,1.21h-1V43.24A1.86,1.86,0,0,0,25,42.7a2.9,2.9,0,0,0,.44-1.82V38.14A2.93,2.93,0,0,0,25,36.33a1.91,1.91,0,0,0-1.54-.52V34.22A1.86,1.86,0,0,0,25,33.68a2.85,2.85,0,0,0,.45-1.83V30A2.88,2.88,0,0,0,25,28.21a1.83,1.83,0,0,0-1.52-.55V26.1l1.11,0a9.73,9.73,0,0,1,5.26,1.11,4,4,0,0,1,1.67,3.59,3.91,3.91,0,0,1-1.33,3.1A5.41,5.41,0,0,1,26.49,35a5.47,5.47,0,0,1,3.92,1.3A4.52,4.52,0,0,1,31.79,39.8Z" transform="translate(-1.58 -5.06)"/><path d="M43.21,26.84a.74.74,0,0,1-.32.66,4.66,4.66,0,0,1-.78.35.86.86,0,0,0-.48.33,1.47,1.47,0,0,0-.1.68V40.69a3.69,3.69,0,0,0,.32,1.83,1.71,1.71,0,0,0,1.36.61v2l-1.76,0a7,7,0,0,1-4.73-1.34,5.29,5.29,0,0,1-1.5-4.15V29a2.72,2.72,0,0,0-.07-.8.69.69,0,0,0-.41-.34,5.71,5.71,0,0,1-.65-.35.68.68,0,0,1-.31-.63c0-.52.38-.77,1.14-.77h6.94a2.59,2.59,0,0,1,1,.14A.61.61,0,0,1,43.21,26.84Zm8,.1a.87.87,0,0,1-.5.75,6.63,6.63,0,0,0-1,.71,2,2,0,0,0-.52,1A8.7,8.7,0,0,0,49,31v7.09A8.63,8.63,0,0,1,48,43,5.54,5.54,0,0,1,44,45V43.19a3.6,3.6,0,0,0,2.52-1.29,5.27,5.27,0,0,0,.75-3.12V30.34a2.61,2.61,0,0,0-.8-2.09c-.44-.29-.75-.48-.93-.59a.84.84,0,0,1-.45-.72c0-.56.36-.84,1.09-.84h4a1.5,1.5,0,0,1,.83.18A.78.78,0,0,1,51.22,26.94Z" transform="translate(-1.58 -5.06)"/><path d="M66.64,38.86a5.93,5.93,0,0,1-1.92,4.58A7.41,7.41,0,0,1,59.5,45.2V43.43a2.59,2.59,0,0,0,1.75-.51,1.74,1.74,0,0,0,.59-1.4,2.09,2.09,0,0,0-.91-1.73,14.83,14.83,0,0,0-2.6-1.35,13.81,13.81,0,0,1-4-2.45,5.28,5.28,0,0,1-1.54-3.92,6.25,6.25,0,0,1,1.73-4.54A6,6,0,0,1,59,25.75h.22V27.4a2.15,2.15,0,0,0-1.26.71,1.87,1.87,0,0,0-.49,1.28,1.93,1.93,0,0,0,1,1.64,22.86,22.86,0,0,0,2.84,1.3,10.16,10.16,0,0,1,4,2.55A5.91,5.91,0,0,1,66.64,38.86ZM58.71,45.2a6.54,6.54,0,0,1-1.84-.26L55,44.41a.63.63,0,0,0-.51.25c-.32.36-.58.54-.79.54-.59,0-.88-.37-.88-1.11V39.18A2.46,2.46,0,0,1,53,38.12a.71.71,0,0,1,.68-.32c.41,0,.7.31.88.92s.3,1,.37,1.22a6,6,0,0,0,1.48,2.25,5.09,5.09,0,0,0,2.29,1.24Zm7-14.06c0,.83-.27,1.25-.8,1.25a.85.85,0,0,1-.84-.69c-.15-.46-.27-.88-.38-1.25a5.27,5.27,0,0,0-1.42-2.07,4.58,4.58,0,0,0-2.22-1V25.75a7.14,7.14,0,0,1,1.89.24c.55.19,1.1.38,1.67.56a.88.88,0,0,0,.61-.4.9.9,0,0,1,.72-.4c.51,0,.77.34.77,1Z" transform="translate(-1.58 -5.06)"/><path d="M25.78,58.94a4.46,4.46,0,0,1-1.45,3.45,5.6,5.6,0,0,1-3.93,1.33V62.38A2,2,0,0,0,21.72,62a1.32,1.32,0,0,0,.44-1.06,1.55,1.55,0,0,0-.68-1.3,10.76,10.76,0,0,0-2-1,10.63,10.63,0,0,1-3-1.84,4,4,0,0,1-1.16-3,4.73,4.73,0,0,1,1.3-3.42A4.53,4.53,0,0,1,20,49.06h.16V50.3a1.72,1.72,0,0,0-.95.54,1.44,1.44,0,0,0-.37,1A1.49,1.49,0,0,0,19.64,53a19.5,19.5,0,0,0,2.14,1,7.61,7.61,0,0,1,3,1.92A4.44,4.44,0,0,1,25.78,58.94Zm-6,4.78a5.17,5.17,0,0,1-1.38-.2l-1.4-.4a.51.51,0,0,0-.38.18q-.36.42-.6.42c-.44,0-.66-.28-.66-.85V59.18a1.9,1.9,0,0,1,.13-.8.53.53,0,0,1,.51-.24q.46,0,.66.69c.14.47.23.77.28.92a4.59,4.59,0,0,0,1.12,1.69,3.79,3.79,0,0,0,1.72.94Zm5.26-10.6c0,.62-.2.94-.6.94a.66.66,0,0,1-.63-.52c-.11-.35-.21-.66-.29-.94A3.92,3.92,0,0,0,22.47,51a3.41,3.41,0,0,0-1.67-.78v-1.2a5.36,5.36,0,0,1,1.42.18l1.26.42a.64.64,0,0,0,.46-.3.69.69,0,0,1,.54-.3c.39,0,.58.25.58.76Z" transform="translate(-1.58 -5.06)"/><path d="M30.08,50.66c-.59.26-1,1-1.3,2.24-.07.32-.12.64-.18,1a.61.61,0,0,1-.66.42.61.61,0,0,1-.56-.25,1.81,1.81,0,0,1-.14-.81v-3.9h2.84Zm6.78,12.22a.46.46,0,0,1-.23.44,1.78,1.78,0,0,1-.77.12H30.6a2,2,0,0,1-.78-.11.46.46,0,0,1-.22-.45.58.58,0,0,1,.24-.5,2.05,2.05,0,0,1,.49-.23,1,1,0,0,0,.46-.28,1.19,1.19,0,0,0,.07-.51v-12H35.6V61.5a.63.63,0,0,0,.12.44,1.49,1.49,0,0,0,.47.25,1.49,1.49,0,0,1,.51.27A.51.51,0,0,1,36.86,62.88ZM39,53.54c0,.49-.23.74-.7.74a.61.61,0,0,1-.64-.4c-.08-.42-.15-.74-.2-1-.28-1.23-.71-2-1.3-2.24V49.32H39Z" transform="translate(-1.58 -5.06)"/><path d="M46.46,63.68a5.38,5.38,0,0,1-4.4-2,8.17,8.17,0,0,1-1.62-5.31,8.26,8.26,0,0,1,1.61-5.31,5.37,5.37,0,0,1,4.41-2v1.19a.91.91,0,0,0-.79.46,3.57,3.57,0,0,0-.19,1.4v8.51A3.77,3.77,0,0,0,45.66,62a.89.89,0,0,0,.8.45Zm6.62-7.31a8.23,8.23,0,0,1-1.6,5.32,5.38,5.38,0,0,1-4.42,2v-1.2a.87.87,0,0,0,.78-.45A3.77,3.77,0,0,0,48,60.62V52.11a3.82,3.82,0,0,0-.18-1.4.88.88,0,0,0-.78-.46V49.06a5.35,5.35,0,0,1,4.41,2A8.27,8.27,0,0,1,53.08,56.37Z" transform="translate(-1.58 -5.06)"/><path d="M61.38,62.88a.45.45,0,0,1-.24.44,1.86,1.86,0,0,1-.78.12h-5.2c-.56,0-.84-.2-.84-.58a.56.56,0,0,1,.22-.5l.52-.24a.49.49,0,0,0,.26-.27,2,2,0,0,0,.06-.59V51.5a1.94,1.94,0,0,0-.05-.6c0-.1-.13-.18-.3-.26l-.48-.26a.54.54,0,0,1-.23-.48c0-.39.28-.58.84-.58H60.1V61.5a.58.58,0,0,0,.13.44,1.71,1.71,0,0,0,.48.25,1.32,1.32,0,0,1,.51.27A.51.51,0,0,1,61.38,62.88Zm5.16-9.2q0,4.34-5.42,4.34H60.7v-1.2c.84,0,1.26-.59,1.26-1.76V52.3c0-1.19-.42-1.78-1.26-1.78v-1.2h.42Q66.54,49.32,66.54,53.68Z" transform="translate(-1.58 -5.06)"/></g></svg>